# xmcd
# 
# Track frame offsets:
#     150
#     11774
#     26441
#     52942
# 
# Disc length: 1252
# 
# Revision: 0
# Processed by: cddbd v1.5.2PL0 Copyright (c) Steve Scherf et al.
# Submitted via: fre:ac v1.0.17
# 
DISCID=2404e204
DTITLE=Jonas Brothers - S.O.S.
DYEAR=0
DGENRE=
TTITLE0=S.O.S.
TTITLE1=Hello Beautifull
TTITLE2=Year 3000
TTITLE3=S.O.S (Video)
EXTD=
EXTT0=
EXTT1=
EXTT2=
EXTT3=
PLAYORDER=
